<?xml version="1.0" encoding="UTF-8"?>
<svg width="32px" height="32px" viewBox="0 0 32 32" version="1.1" xmlns="http://www.w3.org/2000/svg">
    <title>Residential Property Marker</title>
    <defs>
        <linearGradient x1="0%" y1="0%" x2="100%" y2="100%" id="houseGradient">
            <stop stop-color="#4CAF50" offset="0%"></stop>
            <stop stop-color="#2E7D32" offset="100%"></stop>
        </linearGradient>
        <filter x="-20%" y="-20%" width="140%" height="140%" filterUnits="objectBoundingBox" id="shadow">
            <feOffset dx="0" dy="1" in="SourceAlpha" result="shadowOffsetOuter1"></feOffset>
            <feGaussianBlur stdDeviation="1" in="shadowOffsetOuter1" result="shadowBlurOuter1"></feGaussianBlur>
            <feColorMatrix values="0 0 0 0 0   0 0 0 0 0   0 0 0 0 0  0 0 0 0.4 0" type="matrix" in="shadowBlurOuter1" result="shadowMatrixOuter1"></feColorMatrix>
            <feMerge>
                <feMergeNode in="shadowMatrixOuter1"></feMergeNode>
                <feMergeNode in="SourceGraphic"></feMergeNode>
            </feMerge>
        </filter>
    </defs>
    <g stroke="none" stroke-width="1" fill="none" fill-rule="evenodd">
        <g filter="url(#shadow)">
            <path d="M16,2 C22.0751,2 27,6.92487 27,13 C27,17.0796 24.5,20.4796 19.5,23.1992 L16,30 L12.5,23.1992 C7.5,20.4796 5,17.0796 5,13 C5,6.92487 9.92487,2 16,2 Z" fill="url(#houseGradient)"></path>
            <path d="M11,13 L16,9 L21,13 L21,21 L11,21 L11,13 Z" fill="#FFFFFF" opacity="0.8"></path>
            <path d="M11,16 L21,16 L21,21 L11,21 L11,16 Z" fill="#FFFFFF" opacity="0.9"></path>
            <path d="M14,17 L14,21 L18,21 L18,17 L14,17 Z" fill="#1B5E20" opacity="0.7"></path>
            <path d="M14,17 L15,17 L15,19 L14,19 L14,17 Z" fill="#FFFFFF"></path>
            <path d="M15,12 L17,12 L17,14 L15,14 L15,12 Z" fill="#FFFFFF"></path>
        </g>
    </g>
</svg>